<?xml version="1.0" standalone="no"?>
<!DOCTYPE svg PUBLIC "-//W3C//DTD SVG 20010904//EN"
 "http://www.w3.org/TR/2001/REC-SVG-20010904/DTD/svg10.dtd">
<svg version="1.0" xmlns="http://www.w3.org/2000/svg"
 width="225.000000pt" height="225.000000pt" viewBox="0 0 225.000000 225.000000"
 preserveAspectRatio="xMidYMid meet">
<metadata>
Created by potrace 1.15, written by Peter Selinger 2001-2017
</metadata>
<g transform="translate(0.000000,225.000000) scale(0.100000,-0.100000)"
fill="#003082" stroke="none">
<path d="M945 1983 c-283 -60 -525 -262 -632 -528 l-32 -80 -57 -7 c-180 -23
-278 -212 -189 -364 44 -74 105 -109 228 -126 12 -2 28 -29 50 -83 87 -216
276 -403 491 -486 448 -173 955 44 1133 486 l32 80 55 7 c123 16 209 99 223
216 15 132 -83 252 -221 270 l-57 7 -32 80 c-109 270 -360 476 -645 531 -94
18 -257 17 -347 -3z m389 -73 c43 -11 119 -41 170 -67 74 -39 110 -66 191
-148 103 -103 154 -181 200 -310 26 -71 35 -78 115 -86 111 -10 170 -70 170
-174 0 -104 -59 -164 -170 -174 -42 -4 -75 -13 -83 -21 -8 -8 -26 -46 -40 -85
-76 -197 -207 -346 -389 -440 -130 -68 -216 -88 -373 -88 -158 0 -242 20 -378
90 -76 39 -109 64 -192 147 -103 103 -154 183 -200 311 -26 71 -35 78 -115 86
-111 10 -170 70 -170 174 0 104 59 164 170 174 42 4 75 13 83 21 8 8 26 47 40
85 78 202 209 349 400 445 121 61 131 62 106 13 -40 -79 -13 -165 64 -202 88
-43 234 -52 338 -21 44 13 89 55 89 84 0 37 -36 83 -84 106 -60 28 -157 38
-174 17 -22 -27 -4 -44 54 -51 69 -8 137 -41 132 -64 -6 -30 -49 -42 -152 -42
-117 0 -169 13 -202 53 -30 35 -30 55 -1 97 67 100 197 123 401 70z"/>
<path d="M779 1293 c-15 -2 -51 -19 -80 -36 -40 -24 -55 -39 -57 -58 -5 -41
21 -42 79 -4 36 25 62 35 89 35 48 0 75 23 60 51 -11 19 -30 21 -91 12z"/>
<path d="M1381 1282 c-16 -29 10 -52 59 -52 27 0 53 -10 89 -35 56 -37 81 -37
81 0 0 39 -85 90 -167 101 -45 6 -52 4 -62 -14z"/>
<path d="M734 1151 c-50 -22 -81 -95 -50 -120 19 -16 40 -5 53 29 15 40 59 43
69 5 8 -31 27 -47 47 -39 21 8 25 24 15 61 -14 51 -84 85 -134 64z"/>
<path d="M1430 1143 c-52 -27 -73 -102 -33 -117 20 -8 41 10 45 37 2 16 11 23
31 25 24 3 30 -2 40 -27 13 -35 33 -46 53 -30 22 18 16 56 -13 89 -36 38 -77
46 -123 23z"/>
<path d="M787 833 c-12 -12 -7 -78 9 -126 47 -139 224 -234 388 -207 162 26
295 165 284 297 l-3 38 -336 3 c-184 1 -338 -1 -342 -5z m617 -61 c9 -15 -41
-108 -74 -135 -69 -58 -108 -72 -205 -72 -78 0 -97 4 -140 27 -27 14 -62 39
-77 55 -29 31 -70 112 -62 125 7 11 551 10 558 0z"/>
</g>
</svg>
