<?xml version="1.0" standalone="no"?>
<!DOCTYPE svg PUBLIC "-//W3C//DTD SVG 20010904//EN"
 "http://www.w3.org/TR/2001/REC-SVG-20010904/DTD/svg10.dtd">
<svg version="1.0" xmlns="http://www.w3.org/2000/svg"
 width="224.000000pt" height="225.000000pt" viewBox="0 0 224.000000 225.000000"
 preserveAspectRatio="xMidYMid meet">
<metadata>
Created by potrace 1.15, written by Peter Selinger 2001-2017
</metadata>
<g transform="translate(0.000000,225.000000) scale(0.100000,-0.100000)"
fill="#003082" stroke="none">
<path d="M948 2235 c-346 -56 -653 -274 -813 -578 -236 -448 -156 -980 202
-1328 190 -186 417 -292 678 -319 205 -21 403 17 600 115 130 64 216 127 312
228 426 448 411 1149 -33 1578 -157 152 -340 249 -552 293 -105 23 -293 28
-394 11z m287 -86 c169 -21 317 -76 465 -174 80 -53 224 -200 275 -279 276
-433 212 -974 -156 -1319 -143 -135 -314 -223 -508 -262 -126 -26 -345 -17
-466 19 -179 53 -309 129 -438 255 -167 162 -262 343 -302 575 -39 230 9 483
132 690 55 93 198 247 289 312 130 93 309 163 469 183 101 12 139 12 240 0z"/>
<path d="M576 1761 c-11 -12 -15 -27 -12 -39 4 -10 58 -54 121 -97 63 -43 115
-80 115 -81 0 -2 -49 -37 -108 -78 -60 -41 -115 -82 -122 -91 -17 -21 2 -65
28 -65 20 0 179 97 275 168 88 66 86 71 -94 193 -84 56 -159 104 -168 106 -9
2 -25 -5 -35 -16z"/>
<path d="M1468 1678 c-126 -85 -154 -108 -156 -129 -4 -32 19 -51 191 -164 91
-59 123 -76 141 -71 28 7 40 31 26 55 -5 10 -57 51 -115 91 -58 40 -108 76
-110 80 -3 4 42 39 98 78 56 38 110 79 121 91 18 19 18 22 2 46 -9 14 -23 25
-30 25 -8 0 -83 -46 -168 -102z"/>
<path d="M292 1108 c-29 -29 1 -201 54 -316 89 -193 262 -359 460 -442 104
-43 190 -60 314 -60 236 0 443 91 613 270 126 131 196 273 218 439 10 73 10
93 -1 105 -11 14 -101 16 -829 16 -622 0 -820 -3 -829 -12z m1568 -101 c0 -46
-32 -143 -73 -222 -52 -99 -198 -251 -297 -308 -198 -114 -463 -129 -667 -37
-177 80 -337 243 -403 410 -23 58 -51 170 -45 179 1 3 337 5 744 3 l741 -2 0
-23z"/>
</g>
</svg>
