<?xml version="1.0" standalone="no"?>
<!DOCTYPE svg PUBLIC "-//W3C//DTD SVG 20010904//EN"
 "http://www.w3.org/TR/2001/REC-SVG-20010904/DTD/svg10.dtd">
<svg version="1.0" xmlns="http://www.w3.org/2000/svg"
 width="225.000000pt" height="225.000000pt" viewBox="0 0 225.000000 225.000000"
 preserveAspectRatio="xMidYMid meet">
<metadata>
Created by potrace 1.15, written by Peter Selinger 2001-2017
</metadata>
<g transform="translate(0.000000,225.000000) scale(0.100000,-0.100000)"
fill="#003082" stroke="none">
<path d="M975 2239 c-160 -20 -334 -87 -479 -183 -98 -65 -248 -217 -312 -316
-246 -381 -242 -865 10 -1244 64 -96 212 -242 313 -309 386 -256 911 -243
1279 31 365 272 530 710 434 1152 -48 221 -150 401 -322 566 -250 239 -575
346 -923 303z m382 -89 c184 -44 350 -133 484 -258 327 -306 425 -788 244
-1197 -97 -217 -313 -433 -530 -530 -410 -182 -889 -85 -1195 241 -166 177
-257 380 -282 633 -35 357 126 710 426 933 134 100 316 174 486 198 93 13 271
3 367 -20z"/>
<path d="M1102 2088 c-8 -8 -12 -66 -12 -196 l0 -185 -72 6 c-76 5 -225 40
-265 60 l-23 13 35 73 c20 40 44 86 55 101 25 36 25 66 0 80 -27 14 -51 -14
-110 -131 l-48 -97 -62 35 c-69 38 -103 40 -108 6 -3 -22 21 -42 116 -94 l29
-16 -28 -107 c-15 -59 -31 -131 -34 -160 -11 -85 -9 -84 -132 -49 -59 16 -129
39 -155 49 -44 17 -49 17 -64 2 -10 -9 -14 -24 -10 -33 9 -23 105 -63 228 -93
l108 -27 0 -201 0 -201 -41 -7 c-65 -10 -255 -75 -280 -95 -24 -19 -21 -47 5
-57 8 -3 50 8 93 24 43 16 111 37 152 47 85 20 86 20 96 -61 3 -29 19 -101 34
-160 l28 -107 -29 -16 c-95 -52 -119 -72 -116 -94 5 -34 39 -32 108 6 l62 35
48 -97 c59 -117 83 -145 110 -131 25 14 25 44 0 80 -11 15 -35 61 -55 101 -31
66 -33 74 -18 83 36 20 192 57 266 63 l77 6 0 -185 c0 -157 2 -188 16 -199 11
-9 20 -10 32 -2 15 9 17 35 20 198 l2 188 73 -6 c75 -5 224 -40 264 -60 l23
-13 -35 -73 c-20 -40 -44 -86 -55 -101 -25 -36 -25 -66 0 -80 27 -14 51 14
110 131 l48 97 62 -35 c69 -38 103 -40 108 -6 3 22 -21 42 -116 94 l-29 16 28
107 c15 59 31 131 34 160 11 83 10 83 112 56 48 -12 115 -33 147 -46 33 -13
67 -24 77 -24 22 0 35 36 19 55 -17 20 -124 60 -232 86 l-98 24 0 201 0 201
41 7 c65 10 255 75 280 95 24 19 21 47 -5 57 -8 3 -50 -8 -93 -24 -43 -16
-111 -37 -152 -47 -85 -20 -86 -20 -96 61 -3 29 -19 101 -34 160 l-28 107 29
16 c95 52 119 72 116 94 -5 34 -39 32 -108 -6 l-62 -35 -48 97 c-59 117 -83
145 -110 131 -25 -14 -25 -44 0 -80 11 -15 35 -61 55 -101 31 -66 33 -74 18
-83 -36 -20 -192 -57 -265 -63 l-78 -6 0 185 c0 182 -4 208 -35 208 -6 0 -16
-5 -23 -12z m-310 -403 c42 -13 116 -29 165 -36 48 -6 98 -13 111 -15 22 -4
22 -7 22 -150 l0 -145 -107 6 c-98 6 -344 33 -349 38 -11 10 62 327 75 327 3
0 40 -11 83 -25z m777 -52 c19 -74 52 -245 47 -250 -5 -5 -251 -32 -348 -38
l-108 -6 0 144 c0 161 -2 157 71 157 51 0 170 25 240 49 30 11 59 20 65 20 7
1 21 -34 33 -76z m-804 -342 c44 -6 135 -13 203 -17 l122 -7 0 -142 0 -142
-132 -8 c-73 -4 -175 -13 -227 -20 -52 -8 -99 -11 -103 -9 -10 6 -11 348 -1
358 4 4 19 4 33 2 14 -3 61 -10 105 -15z m863 -160 c1 -96 -1 -178 -5 -182 -5
-4 -51 -2 -104 6 -52 7 -154 16 -227 20 l-132 8 0 142 0 142 129 8 c71 3 169
13 217 20 49 7 96 12 104 11 13 -1 15 -29 18 -175z m-538 -366 c0 -166 12
-149 -112 -160 -37 -3 -107 -17 -155 -31 -49 -15 -95 -28 -104 -31 -21 -6 -49
94 -83 294 l-5 31 87 12 c82 12 236 25 330 29 l42 1 0 -145z m405 119 c65 -8
120 -16 121 -17 11 -10 -62 -327 -75 -327 -3 0 -40 11 -83 25 -42 13 -116 29
-165 36 -48 6 -98 13 -110 15 -23 4 -23 7 -23 150 l0 145 108 -6 c59 -4 161
-13 227 -21z"/>
</g>
</svg>
