<?xml version="1.0" standalone="no"?>
<!DOCTYPE svg PUBLIC "-//W3C//DTD SVG 20010904//EN"
 "http://www.w3.org/TR/2001/REC-SVG-20010904/DTD/svg10.dtd">
<svg version="1.0" xmlns="http://www.w3.org/2000/svg"
 width="225.000000pt" height="225.000000pt" viewBox="0 0 225.000000 225.000000"
 preserveAspectRatio="xMidYMid meet">
<metadata>
Created by potrace 1.15, written by Peter Selinger 2001-2017
</metadata>
<g transform="translate(0.000000,225.000000) scale(0.100000,-0.100000)"
fill="#003082" stroke="none">
<path d="M930 2196 c-323 -68 -586 -273 -725 -567 -73 -156 -90 -235 -90 -434
0 -199 16 -276 90 -434 77 -162 202 -311 334 -397 l60 -39 3 -140 3 -140 520
0 520 0 3 140 3 140 60 39 c132 86 257 235 334 397 74 157 90 235 90 434 0
146 -3 182 -23 255 -29 105 -97 252 -156 334 -56 78 -164 186 -242 242 -81 58
-229 127 -329 155 -102 27 -354 36 -455 15z m384 -72 c312 -59 586 -292 700
-595 79 -212 77 -469 -6 -678 -72 -181 -183 -321 -350 -438 l-78 -55 0 -129 0
-129 -140 0 -140 0 0 100 c0 83 -3 101 -17 109 -11 6 -24 6 -35 0 -15 -8 -18
-24 -18 -109 l0 -100 -105 0 -105 0 0 100 c0 85 -3 101 -18 109 -11 6 -24 6
-35 0 -14 -8 -17 -26 -17 -109 l0 -100 -140 0 -140 0 0 130 0 129 -47 32
c-182 123 -299 262 -375 443 -217 524 78 1126 626 1276 144 40 280 44 440 14z"/>
<path d="M620 1431 c-58 -19 -110 -53 -152 -100 -136 -151 -88 -392 96 -489
44 -23 63 -27 136 -27 73 0 93 4 142 28 65 32 121 90 151 156 29 64 29 188 0
252 -50 112 -152 180 -276 185 -40 2 -83 0 -97 -5z m161 -73 c91 -27 169 -134
169 -233 0 -66 -36 -141 -89 -187 -112 -96 -288 -68 -365 56 -24 39 -31 63
-34 117 -4 59 0 77 23 124 53 110 174 160 296 123z"/>
<path d="M1442 1422 c-262 -94 -283 -457 -34 -579 49 -24 69 -28 142 -28 73 0
92 4 136 27 184 97 232 338 96 490 -88 97 -221 132 -340 90z m235 -88 c69 -43
106 -108 111 -195 4 -59 0 -77 -22 -123 -91 -185 -355 -180 -442 8 -46 99 -20
217 64 287 56 47 96 59 175 55 53 -3 77 -10 114 -32z"/>
</g>
</svg>
