<?xml version="1.0" standalone="no"?>
<!DOCTYPE svg PUBLIC "-//W3C//DTD SVG 20010904//EN"
 "http://www.w3.org/TR/2001/REC-SVG-20010904/DTD/svg10.dtd">
<svg version="1.0" xmlns="http://www.w3.org/2000/svg"
 width="225.000000pt" height="225.000000pt" viewBox="0 0 225.000000 225.000000"
 preserveAspectRatio="xMidYMid meet">
<metadata>
Created by potrace 1.15, written by Peter Selinger 2001-2017
</metadata>
<g transform="translate(0.000000,225.000000) scale(0.100000,-0.100000)"
fill="#003082" stroke="none">
<path d="M1065 1851 c-93 -24 -182 -105 -211 -193 -25 -77 -16 -181 23 -249
77 -138 241 -189 381 -118 111 55 168 156 160 284 -8 114 -66 204 -165 254
-47 23 -141 35 -188 22z m153 -67 c47 -19 98 -68 123 -116 62 -121 8 -277
-115 -334 -181 -84 -374 84 -326 285 14 58 72 131 129 161 45 24 137 26 189 4z"/>
<path d="M1059 1200 c-139 -24 -262 -150 -338 -349 -29 -75 -74 -262 -85 -353
l-6 -48 504 0 503 0 -13 83 c-38 238 -141 469 -255 572 -83 74 -207 112 -310
95z m189 -79 c132 -68 236 -235 298 -479 13 -52 24 -105 24 -118 l0 -24 -440
0 c-242 0 -440 3 -440 6 0 28 46 217 70 288 63 189 149 298 267 342 55 21 167
13 221 -15z"/>
</g>
</svg>
